<svg width="60" height="61" viewBox="0 0 60 61" fill="none" xmlns="http://www.w3.org/2000/svg">
<path d="M0 8.47607C0 4.0578 3.58172 0.476074 8 0.476074H52C56.4183 0.476074 60 4.0578 60 8.47607V52.4761C60 56.8944 56.4183 60.4761 52 60.4761H8C3.58172 60.4761 0 56.8944 0 52.4761V8.47607Z" fill="#022C22"/>
<path d="M16.6663 35.4761C15.7497 35.4761 14.9652 35.15 14.313 34.4978C13.6608 33.8456 13.3341 33.0606 13.333 32.1428V17.1428C13.333 16.2261 13.6597 15.4417 14.313 14.7894C14.9663 14.1372 15.7508 13.8106 16.6663 13.8094H31.6663C32.583 13.8094 33.368 14.1361 34.0213 14.7894C34.6747 15.4428 35.0008 16.2272 34.9997 17.1428V32.1428C34.9997 33.0594 34.6736 33.8444 34.0213 34.4978C33.3691 35.1511 32.5841 35.4772 31.6663 35.4761H16.6663ZM23.333 29.2261L21.333 26.4761L18.333 30.4761H29.9997L26.1663 25.4761L23.333 29.2261ZM38.333 47.1428C36.9441 47.1428 35.7636 46.6567 34.7913 45.6844C33.8191 44.7122 33.333 43.5317 33.333 42.1428C33.333 40.7539 33.8191 39.5733 34.7913 38.6011C35.7636 37.6289 36.9441 37.1428 38.333 37.1428C38.6386 37.1428 38.9236 37.1706 39.188 37.2261C39.4525 37.2817 39.723 37.3511 39.9997 37.4344V28.8094H46.6663V32.1428H43.333V42.1428C43.333 43.5317 42.8469 44.7122 41.8747 45.6844C40.9025 46.6567 39.7219 47.1428 38.333 47.1428Z" fill="white"/>
</svg>
