<svg width="60" height="61" viewBox="0 0 60 61" fill="none" xmlns="http://www.w3.org/2000/svg">
<path d="M0 8.47607C0 4.0578 3.58172 0.476074 8 0.476074H52C56.4183 0.476074 60 4.0578 60 8.47607V52.4761C60 56.8944 56.4183 60.4761 52 60.4761H8C3.58172 60.4761 0 56.8944 0 52.4761V8.47607Z" fill="#022C22"/>
<path d="M25.6837 43.8094H20.8337C18.3337 43.8094 16.1337 42.976 14.3503 41.1927C12.567 39.4427 11.667 37.2927 11.667 34.776C11.667 32.6094 12.317 30.676 13.617 28.976C14.885 27.3143 16.706 26.1615 18.7503 25.726C19.4503 23.176 20.8337 21.1094 22.917 19.526C25.0003 17.976 27.367 17.1427 30.0003 17.1427C33.2503 17.1427 36.017 18.276 38.267 20.5427C40.5337 22.7927 41.667 25.5594 41.667 28.8094C43.5837 29.026 45.1837 29.8594 46.4337 31.3094C47.5003 32.526 48.1003 33.9094 48.267 35.476H40.0003C39.2232 34.442 38.2165 33.6027 37.0596 33.0242C35.9026 32.4458 34.6271 32.144 33.3337 32.1427C28.667 32.1427 25.0003 35.8094 25.0003 40.476C25.0003 41.676 25.2503 42.7927 25.6837 43.8094ZM48.3337 38.8094V42.1427H45.0003V45.476H41.667V42.1427H38.0003C37.3337 44.1427 35.5003 45.476 33.3337 45.476C30.5003 45.476 28.3337 43.3094 28.3337 40.476C28.3337 37.6427 30.5003 35.476 33.3337 35.476C35.5003 35.476 37.3337 36.8094 38.0003 38.8094H48.3337ZM35.0003 40.476C35.0003 39.6427 34.3337 38.8094 33.3337 38.8094C32.3337 38.8094 31.667 39.6427 31.667 40.476C31.667 41.3094 32.3337 42.1427 33.3337 42.1427C34.3337 42.1427 35.0003 41.3094 35.0003 40.476Z" fill="white"/>
</svg>
