<svg width="60" height="61" viewBox="0 0 60 61" fill="none" xmlns="http://www.w3.org/2000/svg">
<path d="M0 8.47607C0 4.0578 3.58172 0.476074 8 0.476074H52C56.4183 0.476074 60 4.0578 60 8.47607V52.4761C60 56.8944 56.4183 60.4761 52 60.4761H8C3.58172 60.4761 0 56.8944 0 52.4761V8.47607Z" fill="#022C22"/>
<path d="M16 18.4761C16 17.9456 16.2107 17.4369 16.5858 17.0619C16.9609 16.6868 17.4696 16.4761 18 16.4761H42C42.5304 16.4761 43.0391 16.6868 43.4142 17.0619C43.7893 17.4369 44 17.9456 44 18.4761V22.4761C44 23.0065 43.7893 23.5152 43.4142 23.8903C43.0391 24.2654 42.5304 24.4761 42 24.4761H18C17.4696 24.4761 16.9609 24.2654 16.5858 23.8903C16.2107 23.5152 16 23.0065 16 22.4761V18.4761ZM16 30.4761C16 29.9456 16.2107 29.4369 16.5858 29.0619C16.9609 28.6868 17.4696 28.4761 18 28.4761H30C30.5304 28.4761 31.0391 28.6868 31.4142 29.0619C31.7893 29.4369 32 29.9456 32 30.4761V42.4761C32 43.0065 31.7893 43.5152 31.4142 43.8903C31.0391 44.2654 30.5304 44.4761 30 44.4761H18C17.4696 44.4761 16.9609 44.2654 16.5858 43.8903C16.2107 43.5152 16 43.0065 16 42.4761V30.4761ZM38 28.4761C37.4696 28.4761 36.9609 28.6868 36.5858 29.0619C36.2107 29.4369 36 29.9456 36 30.4761V42.4761C36 43.0065 36.2107 43.5152 36.5858 43.8903C36.9609 44.2654 37.4696 44.4761 38 44.4761H42C42.5304 44.4761 43.0391 44.2654 43.4142 43.8903C43.7893 43.5152 44 43.0065 44 42.4761V30.4761C44 29.9456 43.7893 29.4369 43.4142 29.0619C43.0391 28.6868 42.5304 28.4761 42 28.4761H38Z" fill="white"/>
</svg>
