<svg width="60" height="61" viewBox="0 0 60 61" fill="none" xmlns="http://www.w3.org/2000/svg">
<path d="M0 8.47607C0 4.0578 3.58172 0.476074 8 0.476074H52C56.4183 0.476074 60 4.0578 60 8.47607V52.4761C60 56.8944 56.4183 60.4761 52 60.4761H8C3.58172 60.4761 0 56.8944 0 52.4761V8.47607Z" fill="#022C22"/>
<path opacity="0.5" d="M22.0087 23.0794C22.251 22.8583 22.3967 22.5508 22.4144 22.2232C22.432 21.8957 22.3202 21.5743 22.103 21.3284C21.8858 21.0825 21.5806 20.9319 21.2534 20.9091C20.9261 20.8862 20.603 20.9929 20.3537 21.2061C18.8005 22.5732 17.5567 24.2559 16.7054 26.1418C15.8541 28.0278 15.4149 30.0736 15.417 32.1428C15.417 32.4743 15.5487 32.7922 15.7831 33.0267C16.0175 33.2611 16.3355 33.3928 16.667 33.3928C16.9985 33.3928 17.3165 33.2611 17.5509 33.0267C17.7853 32.7922 17.917 32.4743 17.917 32.1428C17.9148 30.4279 18.2787 28.7323 18.9843 27.1694C19.6899 25.6064 20.721 24.212 22.0087 23.0794ZM39.647 21.2061C39.3977 20.9929 39.0746 20.8862 38.7473 20.9091C38.42 20.9319 38.1149 21.0825 37.8977 21.3284C37.6805 21.5743 37.5686 21.8957 37.5863 22.2232C37.6039 22.5508 37.7496 22.8583 37.992 23.0794C39.2797 24.212 40.3107 25.6064 41.0164 27.1694C41.722 28.7323 42.0858 30.4279 42.0837 32.1428C42.0837 32.4743 42.2154 32.7922 42.4498 33.0267C42.6842 33.2611 43.0021 33.3928 43.3337 33.3928C43.6652 33.3928 43.9831 33.2611 44.2175 33.0267C44.452 32.7922 44.5837 32.4743 44.5837 32.1428C44.5858 30.0736 44.1465 28.0278 43.2952 26.1418C42.4439 24.2559 41.2002 22.5732 39.647 21.2061ZM26.9787 43.8461C26.8181 43.7998 26.6498 43.7862 26.4838 43.8061C26.3179 43.826 26.1576 43.879 26.0125 43.9619C25.8673 44.0448 25.7403 44.156 25.6389 44.2889C25.5375 44.4217 25.4638 44.5736 25.4221 44.7355C25.3804 44.8973 25.3716 45.0659 25.3962 45.2312C25.4208 45.3965 25.4783 45.5553 25.5653 45.698C25.6523 45.8407 25.7671 45.9645 25.9028 46.0621C26.0385 46.1597 26.1924 46.229 26.3553 46.2661C28.7466 46.8797 31.2541 46.8797 33.6453 46.2661C33.8083 46.229 33.9622 46.1597 34.0979 46.0621C34.2336 45.9645 34.3484 45.8407 34.4354 45.698C34.5224 45.5553 34.5799 45.3965 34.6045 45.2312C34.6291 45.0659 34.6203 44.8973 34.5786 44.7355C34.5369 44.5736 34.4632 44.4217 34.3618 44.2889C34.2603 44.156 34.1333 44.0448 33.9882 43.9619C33.8431 43.879 33.6828 43.826 33.5168 43.8061C33.3509 43.7862 33.1826 43.7998 33.022 43.8461C32.0347 44.0988 31.0195 44.2265 30.0003 44.2261C28.9812 44.2265 27.966 44.0988 26.9787 43.8461Z" fill="white"/>
<path d="M25.0003 20.4761C25.0003 21.8022 25.5271 23.0739 26.4648 24.0116C27.4025 24.9493 28.6742 25.4761 30.0003 25.4761C31.3264 25.4761 32.5982 24.9493 33.5359 24.0116C34.4735 23.0739 35.0003 21.8022 35.0003 20.4761C35.0003 19.15 34.4735 17.8782 33.5359 16.9405C32.5982 16.0029 31.3264 15.4761 30.0003 15.4761C28.6742 15.4761 27.4025 16.0029 26.4648 16.9405C25.5271 17.8782 25.0003 19.15 25.0003 20.4761ZM14.167 40.4761C14.167 41.1327 14.2963 41.7829 14.5476 42.3895C14.7989 42.9961 15.1672 43.5473 15.6315 44.0116C16.0958 44.4759 16.6469 44.8442 17.2536 45.0955C17.8602 45.3467 18.5104 45.4761 19.167 45.4761C19.8236 45.4761 20.4738 45.3467 21.0804 45.0955C21.687 44.8442 22.2382 44.4759 22.7025 44.0116C23.1668 43.5473 23.5351 42.9961 23.7864 42.3895C24.0377 41.7829 24.167 41.1327 24.167 40.4761C24.167 39.15 23.6402 37.8782 22.7025 36.9405C21.7648 36.0029 20.4931 35.4761 19.167 35.4761C17.8409 35.4761 16.5691 36.0029 15.6315 36.9405C14.6938 37.8782 14.167 39.15 14.167 40.4761ZM40.8337 45.4761C39.5076 45.4761 38.2358 44.9493 37.2981 44.0116C36.3604 43.0739 35.8337 41.8022 35.8337 40.4761C35.8337 39.15 36.3604 37.8782 37.2981 36.9405C38.2358 36.0029 39.5076 35.4761 40.8337 35.4761C42.1597 35.4761 43.4315 36.0029 44.3692 36.9405C45.3069 37.8782 45.8337 39.15 45.8337 40.4761C45.8337 41.8022 45.3069 43.0739 44.3692 44.0116C43.4315 44.9493 42.1597 45.4761 40.8337 45.4761Z" fill="white"/>
</svg>
